<mxfile host="Electron" agent="Mozilla/5.0 (Windows NT 10.0; Win64; x64) AppleWebKit/537.36 (KHTML, like Gecko) draw.io/26.0.3 Chrome/130.0.6723.137 Electron/33.2.1 Safari/537.36" version="26.0.3" pages="2">
  <diagram id="04GOslsQYsE7Ux3H-qjs" name="hardware-design">
    <mxGraphModel dx="548" dy="358" grid="1" gridSize="10" guides="1" tooltips="1" connect="1" arrows="1" fold="1" page="1" pageScale="1" pageWidth="850" pageHeight="1100" math="0" shadow="0">
      <root>
        <mxCell id="0" />
        <mxCell id="1" parent="0" />
        <mxCell id="7iHmRNYBpmug5_hZaxxt-1" style="edgeStyle=orthogonalEdgeStyle;rounded=0;orthogonalLoop=1;jettySize=auto;html=1;exitX=0;exitY=0.25;exitDx=0;exitDy=0;entryX=1;entryY=0.5;entryDx=0;entryDy=0;" edge="1" parent="1" source="7iHmRNYBpmug5_hZaxxt-23" target="7iHmRNYBpmug5_hZaxxt-27">
          <mxGeometry relative="1" as="geometry" />
        </mxCell>
        <mxCell id="7iHmRNYBpmug5_hZaxxt-2" value="GPIO" style="edgeLabel;html=1;align=center;verticalAlign=middle;resizable=0;points=[];" vertex="1" connectable="0" parent="7iHmRNYBpmug5_hZaxxt-1">
          <mxGeometry x="-0.2952" y="3" relative="1" as="geometry">
            <mxPoint x="-6" y="-3" as="offset" />
          </mxGeometry>
        </mxCell>
        <mxCell id="7iHmRNYBpmug5_hZaxxt-3" style="edgeStyle=orthogonalEdgeStyle;rounded=0;orthogonalLoop=1;jettySize=auto;html=1;exitX=0;exitY=0.5;exitDx=0;exitDy=0;entryX=1;entryY=0.5;entryDx=0;entryDy=0;" edge="1" parent="1" source="7iHmRNYBpmug5_hZaxxt-23" target="7iHmRNYBpmug5_hZaxxt-28">
          <mxGeometry relative="1" as="geometry">
            <Array as="points">
              <mxPoint x="240" y="160" />
              <mxPoint x="240" y="150" />
            </Array>
          </mxGeometry>
        </mxCell>
        <mxCell id="7iHmRNYBpmug5_hZaxxt-4" value="I&lt;sup&gt;2&lt;/sup&gt;C" style="edgeLabel;html=1;align=center;verticalAlign=middle;resizable=0;points=[];" vertex="1" connectable="0" parent="7iHmRNYBpmug5_hZaxxt-3">
          <mxGeometry x="0.0764" y="3" relative="1" as="geometry">
            <mxPoint x="1" y="-3" as="offset" />
          </mxGeometry>
        </mxCell>
        <mxCell id="7iHmRNYBpmug5_hZaxxt-5" style="edgeStyle=orthogonalEdgeStyle;rounded=0;orthogonalLoop=1;jettySize=auto;html=1;exitX=1;exitY=0.25;exitDx=0;exitDy=0;entryX=0;entryY=0.5;entryDx=0;entryDy=0;" edge="1" parent="1" source="7iHmRNYBpmug5_hZaxxt-23" target="7iHmRNYBpmug5_hZaxxt-24">
          <mxGeometry relative="1" as="geometry" />
        </mxCell>
        <mxCell id="7iHmRNYBpmug5_hZaxxt-6" value="GPIOs" style="edgeLabel;html=1;align=center;verticalAlign=middle;resizable=0;points=[];" vertex="1" connectable="0" parent="7iHmRNYBpmug5_hZaxxt-5">
          <mxGeometry x="0.0187" relative="1" as="geometry">
            <mxPoint as="offset" />
          </mxGeometry>
        </mxCell>
        <mxCell id="7iHmRNYBpmug5_hZaxxt-15" style="edgeStyle=orthogonalEdgeStyle;rounded=0;orthogonalLoop=1;jettySize=auto;html=1;exitX=0;exitY=0.75;exitDx=0;exitDy=0;entryX=1;entryY=0.5;entryDx=0;entryDy=0;" edge="1" parent="1" source="7iHmRNYBpmug5_hZaxxt-23" target="7iHmRNYBpmug5_hZaxxt-33">
          <mxGeometry relative="1" as="geometry">
            <Array as="points">
              <mxPoint x="310" y="180" />
            </Array>
          </mxGeometry>
        </mxCell>
        <mxCell id="7iHmRNYBpmug5_hZaxxt-16" value="GPIO" style="edgeLabel;html=1;align=center;verticalAlign=middle;resizable=0;points=[];" vertex="1" connectable="0" parent="7iHmRNYBpmug5_hZaxxt-15">
          <mxGeometry x="0.0939" y="1" relative="1" as="geometry">
            <mxPoint as="offset" />
          </mxGeometry>
        </mxCell>
        <mxCell id="7iHmRNYBpmug5_hZaxxt-23" value="Microcontroller&lt;br&gt;ESP32" style="rounded=1;whiteSpace=wrap;html=1;strokeColor=#9673a6;align=center;verticalAlign=middle;fontFamily=Courier New;fontSize=12;fillColor=#e1d5e7;fontStyle=1" vertex="1" parent="1">
          <mxGeometry x="310" y="130" width="120" height="60" as="geometry" />
        </mxCell>
        <mxCell id="7iHmRNYBpmug5_hZaxxt-24" value="MOTOR DRIVER #0&lt;div&gt;L298N&lt;/div&gt;" style="rounded=1;whiteSpace=wrap;html=1;strokeColor=#82b366;align=center;verticalAlign=middle;fontFamily=Courier New;fontSize=12;fillColor=#d5e8d4;fontStyle=1" vertex="1" parent="1">
          <mxGeometry x="510" y="115" width="120" height="60" as="geometry" />
        </mxCell>
        <mxCell id="7iHmRNYBpmug5_hZaxxt-27" value="RGB LED" style="rounded=1;whiteSpace=wrap;html=1;strokeColor=#82b366;align=center;verticalAlign=middle;fontFamily=Courier New;fontSize=12;fillColor=#d5e8d4;fontStyle=1" vertex="1" parent="1">
          <mxGeometry x="100" y="110" width="120" height="20" as="geometry" />
        </mxCell>
        <mxCell id="7iHmRNYBpmug5_hZaxxt-28" value="SSD1306" style="rounded=1;whiteSpace=wrap;html=1;strokeColor=#82b366;align=center;verticalAlign=middle;fontFamily=Courier New;fontSize=12;fillColor=#d5e8d4;fontStyle=1" vertex="1" parent="1">
          <mxGeometry x="100" y="140" width="120" height="20" as="geometry" />
        </mxCell>
        <mxCell id="7iHmRNYBpmug5_hZaxxt-33" value="RELAY #0" style="rounded=1;whiteSpace=wrap;html=1;strokeColor=#82b366;align=center;verticalAlign=middle;fontFamily=Courier New;fontSize=12;fillColor=#d5e8d4;fontStyle=1" vertex="1" parent="1">
          <mxGeometry x="100" y="170" width="120" height="20" as="geometry" />
        </mxCell>
      </root>
    </mxGraphModel>
  </diagram>
  <diagram name="process-design" id="6NmzWrrzfGXgevO3qQrM">
    <mxGraphModel dx="794" dy="519" grid="1" gridSize="10" guides="1" tooltips="1" connect="1" arrows="1" fold="1" page="1" pageScale="1" pageWidth="850" pageHeight="1100" math="0" shadow="0">
      <root>
        <mxCell id="0" />
        <mxCell id="1" parent="0" />
      </root>
    </mxGraphModel>
  </diagram>
</mxfile>
